<?xml version="1.0" standalone="no"?>
<!DOCTYPE svg PUBLIC "-//W3C//DTD SVG 20010904//EN"
 "http://www.w3.org/TR/2001/REC-SVG-20010904/DTD/svg10.dtd">
<svg version="1.0" xmlns="http://www.w3.org/2000/svg"
 width="500.000000pt" height="500.000000pt" viewBox="0 0 500.000000 500.000000"
 preserveAspectRatio="xMidYMid meet">

<g transform="translate(0.000000,500.000000) scale(0.100000,-0.100000)"
fill="#000000" stroke="none">
<path d="M0 4605 l0 -396 34 -52 c226 -350 543 -630 970 -859 76 -41 100 -57
76 -52 -101 19 -390 129 -540 204 -182 92 -384 239 -490 358 l-50 57 2 -175 3
-174 121 -61 c161 -82 363 -160 741 -289 451 -153 607 -213 767 -293 124 -62
240 -141 306 -208 l55 -56 -60 21 c-81 28 -409 124 -515 150 -360 89 -717 194
-924 272 -150 56 -348 148 -434 201 -20 13 -43 27 -49 31 -10 6 -13 -24 -13
-133 l0 -141 58 -29 c207 -104 576 -199 932 -240 137 -16 150 -19 115 -27 -22
-5 -177 -9 -345 -9 -279 1 -314 3 -410 23 -131 29 -229 57 -297 87 l-53 24 0
-1420 0 -1419 2500 0 2500 0 0 1420 c0 781 -2 1420 -5 1420 -3 0 -22 -8 -43
-19 -53 -26 -185 -68 -272 -85 -165 -32 -269 -39 -524 -33 -279 6 -370 19
-226 31 143 12 393 54 546 91 180 45 291 80 419 137 l100 44 3 142 c1 78 0
142 -3 142 -2 0 -34 -18 -69 -40 -143 -87 -316 -162 -571 -248 -205 -69 -229
-76 -720 -206 -198 -53 -420 -115 -492 -140 -73 -24 -133 -40 -133 -36 0 4 27
32 59 63 167 154 375 250 996 462 424 145 594 210 782 300 l153 74 0 172 0
172 -108 -105 c-179 -172 -408 -310 -697 -418 -122 -46 -173 -63 -286 -95 -13
-3 28 21 91 55 240 129 450 281 628 454 133 129 213 224 306 357 l66 97 0 396
0 396 -74 0 -73 0 -7 -97 c-30 -414 -218 -786 -577 -1140 -189 -187 -451 -383
-744 -558 -277 -165 -489 -350 -616 -536 -191 -281 -197 -601 -18 -964 131
-266 340 -456 619 -562 93 -35 88 -41 -17 -19 -135 29 -298 99 -418 179 -232
156 -426 423 -511 702 -24 80 -27 107 -28 240 -1 176 10 228 83 380 63 132
149 246 283 376 128 126 246 215 480 362 677 427 1090 831 1322 1293 49 97
126 301 126 333 0 8 -52 11 -174 11 l-173 0 -7 -85 c-17 -222 -93 -430 -227
-620 -85 -118 -278 -312 -412 -412 -84 -63 -370 -242 -432 -271 -16 -8 12 19
141 130 123 108 250 240 349 363 184 228 347 546 425 828 l19 67 -1840 0
c-1011 0 -1839 -2 -1839 -4 0 -2 14 -49 30 -105 80 -268 204 -512 382 -748 91
-122 308 -346 439 -455 55 -44 99 -82 99 -84 0 -6 -212 117 -299 173 -208 135
-442 347 -553 503 -141 198 -221 412 -235 625 l-6 95 -174 0 c-142 0 -173 -3
-173 -14 0 -35 66 -212 120 -322 217 -444 658 -883 1275 -1269 298 -187 401
-264 550 -412 303 -301 414 -638 320 -969 -53 -186 -171 -387 -315 -538 -171
-180 -361 -290 -595 -347 -125 -30 -129 -22 -15 24 275 111 479 303 606 571
88 186 131 376 119 520 -31 365 -267 661 -768 963 -594 358 -947 696 -1147
1098 -107 215 -153 379 -166 588 l-7 107 -74 0 -73 0 0 -395z m2098 -481 c2
-192 206 -315 383 -231 66 32 132 35 199 8 45 -17 46 -17 100 8 124 57 242 37
343 -59 l62 -58 -65 15 c-136 29 -325 -18 -502 -127 -26 -17 -51 -30 -53 -30
-3 0 8 24 25 53 74 132 18 137 -170 18 -90 -57 -157 -88 -227 -104 -28 -7 -52
-16 -53 -22 -2 -5 19 -21 45 -34 59 -31 145 -38 213 -19 l50 15 -39 -71 c-70
-131 -110 -284 -122 -466 l-3 -45 -27 56 c-46 95 -56 194 -31 315 6 30 5 31
-37 38 -101 16 -210 110 -249 214 -29 78 -29 178 -1 254 12 32 26 60 30 62 4
3 7 -17 7 -43 0 -115 103 -187 222 -155 22 6 21 8 -22 54 -45 48 -88 122 -100
174 -11 44 -9 149 4 195 6 23 12 41 14 41 2 0 4 -25 4 -56z m862 -495 c-101
-55 -180 -150 -221 -265 -26 -73 -29 -214 -6 -288 l16 -49 -33 32 c-19 18 -46
58 -62 89 -26 52 -29 67 -29 157 0 90 3 105 28 153 38 72 86 123 148 157 62
33 96 43 164 44 l50 1 -55 -31z m-2700 -1107 c122 -28 554 -24 825 7 290 34
612 35 728 3 112 -31 199 -75 259 -133 29 -28 44 -48 33 -44 -73 25 -212 45
-317 45 -155 0 -291 -19 -603 -84 -143 -30 -307 -60 -365 -67 -125 -14 -310
-7 -395 16 -135 37 -271 135 -360 260 -25 34 -45 65 -45 67 0 3 37 -8 83 -24
45 -16 116 -37 157 -46z m4703 47 c-41 -72 -132 -166 -208 -217 -113 -75 -206
-103 -370 -109 -160 -6 -256 6 -615 81 -146 30 -312 60 -370 67 -144 16 -353
7 -449 -21 -40 -11 -75 -19 -78 -17 -9 10 97 90 162 122 134 67 202 79 450 78
163 0 272 -5 420 -22 124 -14 290 -25 436 -28 308 -7 393 6 637 96 2 0 -5 -13
-15 -30z m-1783 -417 c321 -183 684 -305 1020 -342 165 -19 167 -19 70 -46
-328 -92 -688 -23 -965 183 -87 65 -193 172 -246 249 l-33 49 29 -20 c17 -10
73 -43 125 -73z m-1252 31 c-50 -73 -184 -202 -271 -261 -213 -146 -491 -219
-740 -193 -189 21 -331 70 -200 71 131 0 475 79 688 158 108 40 396 180 485
236 30 19 59 35 63 35 5 1 -7 -20 -25 -46z m-713 -42 c-37 -37 -140 -92 -215
-115 -167 -53 -344 -41 -498 35 -46 22 -81 43 -79 46 3 2 41 -1 84 -8 170 -28
451 -10 638 40 90 25 93 25 70 2z m2635 -1 c192 -52 473 -69 643 -41 43 7 81
10 84 8 8 -9 -141 -76 -207 -94 -91 -23 -256 -22 -340 2 -80 22 -170 67 -229
111 -51 40 -50 40 49 14z m-1845 -325 c-42 -184 -164 -340 -335 -429 -220
-115 -483 -93 -677 57 -63 48 -108 95 -83 84 8 -3 43 -17 77 -31 247 -103 549
-56 773 119 88 70 169 177 221 290 16 36 30 73 31 82 1 10 3 -10 5 -43 2 -34
-3 -92 -12 -129z m1070 -21 c179 -273 524 -409 837 -330 52 13 114 34 138 46
23 12 44 19 47 17 2 -3 -25 -30 -62 -60 -255 -211 -610 -204 -850 15 -128 117
-205 285 -205 448 l1 65 28 -71 c15 -38 45 -97 66 -130z m-780 -349 c-91 -205
-272 -414 -477 -553 -80 -54 -229 -132 -252 -132 -15 0 -75 91 -101 153 l-14
35 37 7 c130 24 342 114 467 198 105 70 223 176 292 263 38 46 69 84 70 84 1
0 -9 -25 -22 -55z m573 -156 c166 -153 384 -271 600 -325 39 -10 72 -22 72
-27 0 -12 -67 -137 -88 -164 l-17 -23 -96 48 c-261 131 -477 342 -608 592 -28
54 -51 101 -51 104 0 4 27 -27 60 -68 34 -41 91 -103 128 -137z m-139 -77
c124 -240 324 -450 544 -569 26 -15 47 -29 47 -34 0 -17 -169 -155 -242 -197
l-37 -21 -57 77 c-209 286 -324 595 -358 967 -6 60 -6 59 37 -60 24 -66 54
-140 66 -163z m-362 179 c-15 -189 -86 -440 -181 -636 -50 -102 -156 -271
-210 -336 l-24 -28 -73 49 c-74 48 -199 155 -199 169 0 4 38 31 84 59 274 168
487 435 577 726 13 42 25 76 28 76 2 0 1 -36 -2 -79z m83 -561 l0 -580 -39 0
c-60 0 -281 51 -281 64 0 2 27 59 59 127 133 279 227 614 248 886 3 46 8 83 9
83 2 0 4 -261 4 -580z m135 310 c44 -258 156 -592 257 -769 24 -42 28 -55 17
-61 -21 -13 -181 -51 -249 -59 l-60 -7 1 575 c1 365 5 547 10 496 4 -44 15
-123 24 -175z"/>
</g>
</svg>
